ffmpeg started on 2025-06-09 at 18:06:59
Report written to "D:\Convert\FFMetrics\reports\ssim_report-6.txt"
Log level: 32
Command line:
ffmpeg -hide_banner -nostdin -i "G:\\\xc0\xed\xe8\xec\xe5\\\xce\xed\xe3\xee\xe8\xed\xe3\xe8\\!_30_\xc2\xe5\xf1\xed\xe0_2023\\\xd1\xeb\xe8\xf8\xea\xee\xec \xec\xe8\xeb\xfb\xe9 \xea\xf0\xe8\xe7\xe8\xf1\\Kawaisugi_Crisis_[07]_[AniLibria_TV]_[WEBRip_1080p]_HEVC.mkv" -i "G:\\\xc0\xed\xe8\xec\xe5\\\xce\xed\xe3\xee\xe8\xed\xe3\xe8\\!_30_\xc2\xe5\xf1\xed\xe0_2023\\\xd1\xeb\xe8\xf8\xea\xee\xec \xec\xe8\xeb\xfb\xe9 \xea\xf0\xe8\xe7\xe8\xf1\\Kawaisugi_Crisis_[07]_[AniLibria_TV]_[WEBRip_1080p].mkv" -lavfi "[0:v]settb=AVTB,setpts=PTS-STARTPTS,format=pix_fmts=yuv420p10,fps=24000/1001,scale=1920:1080:flags=bicubic[main];[1:v]settb=AVTB,setpts=PTS-STARTPTS,format=pix_fmts=yuv420p,fps=24000/1001,scale=1920:1080:flags=bicubic[ref];[main][ref]ssim=eof_action=endall:stats_file='D\\:/Convert/FFMetrics/logs/ssim_logfile-6.txt'" -f null -
Input #0, matroska,webm, from 'G:\Аниме\Онгоинги\!_30_Весна_2023\Слишком милый кризис\Kawaisugi_Crisis_[07]_[AniLibria_TV]_[WEBRip_1080p]_HEVC.mkv':
  Metadata:
    ENCODER         : Lavf61.7.100
  Duration: 00:23:42.51, start: -0.021000, bitrate: 969 kb/s
  Stream #0:0(jpn): Video: hevc (Main 10), yuv420p10le(pc, bt709, progressive), 1920x1080 [SAR 1:1 DAR 16:9], 23.98 fps, 23.98 tbr, 1k tbn (default) (forced)
      Metadata:
        title           : Original
        ENCODER         : Lavc61.19.100 libx265
        BPS             : 771735
        DURATION        : 00:23:42.504708333
        NUMBER_OF_FRAMES: 34106
        NUMBER_OF_BYTES : 137224624
        _STATISTICS_WRITING_APP: mkvpropedit v66.0.0 ('Josie') 64-bit
        _STATISTICS_WRITING_DATE_UTC: 2025-06-09 13:41:39
        _STATISTICS_TAGS: BPS DURATION NUMBER_OF_FRAMES NUMBER_OF_BYTES
  Stream #0:1(rus): Audio: aac (LC), 48000 Hz, stereo, fltp (default) (forced)
      Metadata:
        title           : AniLibria.TV
        ENCODER         : Lavc61.19.100 aac
        BPS             : 193313
        DURATION        : 00:23:42.400000000
        NUMBER_OF_FRAMES: 66676
        NUMBER_OF_BYTES : 34371125
        _STATISTICS_WRITING_APP: mkvpropedit v66.0.0 ('Josie') 64-bit
        _STATISTICS_WRITING_DATE_UTC: 2025-06-09 13:41:39
        _STATISTICS_TAGS: BPS DURATION NUMBER_OF_FRAMES NUMBER_OF_BYTES
  Stream #0:2(rus): Subtitle: ass (ssa) (default) (forced)
      Metadata:
        title           : Надписи
        BPS             : 0
        DURATION        : 00:00:00.000000000
        NUMBER_OF_FRAMES: 0
        NUMBER_OF_BYTES : 0
        _STATISTICS_WRITING_APP: mkvpropedit v66.0.0 ('Josie') 64-bit
        _STATISTICS_WRITING_DATE_UTC: 2025-06-09 13:41:39
        _STATISTICS_TAGS: BPS DURATION NUMBER_OF_FRAMES NUMBER_OF_BYTES
  Stream #0:3(rus): Subtitle: ass (ssa)
      Metadata:
        title           : Субтитры
        BPS             : 183
        DURATION        : 00:23:38.580000000
        NUMBER_OF_FRAMES: 360
        NUMBER_OF_BYTES : 32548
        _STATISTICS_WRITING_APP: mkvpropedit v66.0.0 ('Josie') 64-bit
        _STATISTICS_WRITING_DATE_UTC: 2025-06-09 13:41:39
        _STATISTICS_TAGS: BPS DURATION NUMBER_OF_FRAMES NUMBER_OF_BYTES
Input #1, matroska,webm, from 'G:\Аниме\Онгоинги\!_30_Весна_2023\Слишком милый кризис\Kawaisugi_Crisis_[07]_[AniLibria_TV]_[WEBRip_1080p].mkv':
  Metadata:
    encoder         : libebml v1.4.2 + libmatroska v1.6.4
    creation_time   : 2025-01-14T16:54:10.000000Z
  Duration: 00:23:42.51, start: 0.000000, bitrate: 1901 kb/s
  Stream #1:0(jpn): Video: h264 (High), yuvj420p(pc, bt709, progressive), 1920x1080 [SAR 1:1 DAR 16:9], 23.98 fps, 23.98 tbr, 1k tbn (default) (forced)
      Metadata:
        title           : Original
        BPS             : 1700545
        DURATION        : 00:23:42.505000000
        NUMBER_OF_FRAMES: 34106
        NUMBER_OF_BYTES : 302379273
        _STATISTICS_WRITING_APP: mkvmerge v66.0.0 ('Josie') 64-bit
        _STATISTICS_WRITING_DATE_UTC: 2025-01-14 16:54:10
        _STATISTICS_TAGS: BPS DURATION NUMBER_OF_FRAMES NUMBER_OF_BYTES
  Stream #1:1(rus): Audio: aac (LC), 48000 Hz, stereo, fltp (default) (forced)
      Metadata:
        title           : AniLibria.TV
        BPS             : 192088
        DURATION        : 00:23:42.400000000
        NUMBER_OF_FRAMES: 66675
        NUMBER_OF_BYTES : 34153247
        _STATISTICS_WRITING_APP: mkvmerge v66.0.0 ('Josie') 64-bit
        _STATISTICS_WRITING_DATE_UTC: 2025-01-14 16:54:10
        _STATISTICS_TAGS: BPS DURATION NUMBER_OF_FRAMES NUMBER_OF_BYTES
  Stream #1:2(rus): Subtitle: ass (ssa) (default) (forced)
      Metadata:
        title           : Надписи
        BPS             : 0
        DURATION        : 00:00:00.000000000
        NUMBER_OF_FRAMES: 0
        NUMBER_OF_BYTES : 0
        _STATISTICS_WRITING_APP: mkvmerge v66.0.0 ('Josie') 64-bit
        _STATISTICS_WRITING_DATE_UTC: 2025-01-14 16:54:10
        _STATISTICS_TAGS: BPS DURATION NUMBER_OF_FRAMES NUMBER_OF_BYTES
  Stream #1:3(rus): Subtitle: ass (ssa)
      Metadata:
        title           : Субтитры
        BPS             : 183
        DURATION        : 00:23:38.580000000
        NUMBER_OF_FRAMES: 360
        NUMBER_OF_BYTES : 32548
        _STATISTICS_WRITING_APP: mkvmerge v66.0.0 ('Josie') 64-bit
        _STATISTICS_WRITING_DATE_UTC: 2025-01-14 16:54:10
        _STATISTICS_TAGS: BPS DURATION NUMBER_OF_FRAMES NUMBER_OF_BYTES
  Stream #1:4: Attachment: ttf
      Metadata:
        filename        : ARIAL.TTF
        mimetype        : application/x-truetype-font
  Stream #1:5: Attachment: ttf
      Metadata:
        filename        : tt0142m.ttf
        mimetype        : application/x-truetype-font
Stream mapping:
  Stream #0:0 (hevc) -> settb:default
  Stream #1:0 (h264) -> settb:default
  ssim:default -> Stream #0:0 (wrapped_avframe)
  Stream #0:1 -> #0:1 (aac (native) -> pcm_s16le (native))
[swscaler @ 00000148cf5c5900] deprecated pixel format used, make sure you did set range correctly
Output #0, null, to 'pipe:':
  Metadata:
    encoder         : Lavf61.7.100
  Stream #0:0: Video: wrapped_avframe, yuv420p10le(pc, bt709, progressive), 1920x1080 [SAR 1:1 DAR 16:9], q=2-31, 200 kb/s, 23.98 fps, 23.98 tbn
      Metadata:
        encoder         : Lavc61.19.100 wrapped_avframe
  Stream #0:1(rus): Audio: pcm_s16le, 48000 Hz, stereo, s16, 1536 kb/s (default) (forced)
      Metadata:
        title           : AniLibria.TV
        _STATISTICS_TAGS: BPS DURATION NUMBER_OF_FRAMES NUMBER_OF_BYTES
        BPS             : 193313
        DURATION        : 00:23:42.400000000
        NUMBER_OF_FRAMES: 66676
        NUMBER_OF_BYTES : 34371125
        _STATISTICS_WRITING_APP: mkvpropedit v66.0.0 ('Josie') 64-bit
        _STATISTICS_WRITING_DATE_UTC: 2025-06-09 13:41:39
        encoder         : Lavc61.19.100 pcm_s16le
frame=  152 fps=0.0 q=-0.0 size=N/A time=00:00:06.33 bitrate=N/A speed=12.2x    frame=  322 fps=313 q=-0.0 size=N/A time=00:00:13.43 bitrate=N/A speed=13.1x    frame=  554 fps=360 q=-0.0 size=N/A time=00:00:23.10 bitrate=N/A speed=  15x    frame=  817 fps=396 q=-0.0 size=N/A time=00:00:34.07 bitrate=N/A speed=16.5x    frame= 1054 fps=410 q=-0.0 size=N/A time=00:00:43.96 bitrate=N/A speed=17.1x    frame= 1297 fps=419 q=-0.0 size=N/A time=00:00:54.09 bitrate=N/A speed=17.5x    frame= 1506 fps=418 q=-0.0 size=N/A time=00:01:02.81 bitrate=N/A speed=17.4x    frame= 1724 fps=419 q=-0.0 size=N/A time=00:01:11.90 bitrate=N/A speed=17.5x    frame= 1963 fps=423 q=-0.0 size=N/A time=00:01:21.87 bitrate=N/A speed=17.6x    frame= 2184 fps=423 q=-0.0 size=N/A time=00:01:31.09 bitrate=N/A speed=17.6x    frame= 2402 fps=424 q=-0.0 size=N/A time=00:01:40.18 bitrate=N/A speed=17.7x    frame= 2659 fps=429 q=-0.0 size=N/A time=00:01:50.90 bitrate=N/A speed=17.9x    frame= 2895 fps=432 q=-0.0 size=N/A time=00:02:00.74 bitrate=N/A speed=  18x    frame= 3148 fps=436 q=-0.0 size=N/A time=00:02:11.29 bitrate=N/A speed=18.2x    frame= 3331 fps=430 q=-0.0 size=N/A time=00:02:18.93 bitrate=N/A speed=17.9x    frame= 3483 fps=421 q=-0.0 size=N/A time=00:02:25.27 bitrate=N/A speed=17.6x    frame= 3705 fps=422 q=-0.0 size=N/A time=00:02:34.52 bitrate=N/A speed=17.6x    frame= 3953 fps=426 q=-0.0 size=N/A time=00:02:44.87 bitrate=N/A speed=17.8x    frame= 4201 fps=428 q=-0.0 size=N/A time=00:02:55.21 bitrate=N/A speed=17.9x    frame= 4430 fps=429 q=-0.0 size=N/A time=00:03:04.76 bitrate=N/A speed=17.9x    frame= 4668 fps=430 q=-0.0 size=N/A time=00:03:14.69 bitrate=N/A speed=  18x    frame= 4875 fps=429 q=-0.0 size=N/A time=00:03:23.32 bitrate=N/A speed=17.9x    frame= 5107 fps=430 q=-0.0 size=N/A time=00:03:33.00 bitrate=N/A speed=17.9x    frame= 5350 fps=432 q=-0.0 size=N/A time=00:03:43.13 bitrate=N/A speed=  18x    frame= 5582 fps=432 q=-0.0 size=N/A time=00:03:52.81 bitrate=N/A speed=  18x    frame= 5825 fps=434 q=-0.0 size=N/A time=00:04:02.95 bitrate=N/A speed=18.1x    frame= 6065 fps=435 q=-0.0 size=N/A time=00:04:12.96 bitrate=N/A speed=18.2x    frame= 6322 fps=437 q=-0.0 size=N/A time=00:04:23.68 bitrate=N/A speed=18.2x    frame= 6571 fps=439 q=-0.0 size=N/A time=00:04:34.06 bitrate=N/A speed=18.3x    frame= 6805 fps=440 q=-0.0 size=N/A time=00:04:43.82 bitrate=N/A speed=18.3x    frame= 7070 fps=442 q=-0.0 size=N/A time=00:04:54.87 bitrate=N/A speed=18.4x    frame= 7280 fps=441 q=-0.0 size=N/A time=00:05:03.63 bitrate=N/A speed=18.4x    frame= 7500 fps=441 q=-0.0 size=N/A time=00:05:12.81 bitrate=N/A speed=18.4x    frame= 7734 fps=441 q=-0.0 size=N/A time=00:05:22.57 bitrate=N/A speed=18.4x    frame= 7960 fps=441 q=-0.0 size=N/A time=00:05:31.99 bitrate=N/A speed=18.4x    frame= 8210 fps=442 q=-0.0 size=N/A time=00:05:42.42 bitrate=N/A speed=18.4x    frame= 8454 fps=443 q=-0.0 size=N/A time=00:05:52.60 bitrate=N/A speed=18.5x    frame= 8700 fps=444 q=-0.0 size=N/A time=00:06:02.86 bitrate=N/A speed=18.5x    frame= 8952 fps=445 q=-0.0 size=N/A time=00:06:13.37 bitrate=N/A speed=18.6x    frame= 9185 fps=445 q=-0.0 size=N/A time=00:06:23.09 bitrate=N/A speed=18.6x    frame= 9409 fps=445 q=-0.0 size=N/A time=00:06:32.43 bitrate=N/A speed=18.5x    frame= 9616 fps=444 q=-0.0 size=N/A time=00:06:41.06 bitrate=N/A speed=18.5x    frame= 9866 fps=445 q=-0.0 size=N/A time=00:06:51.49 bitrate=N/A speed=18.5x    frame=10100 fps=445 q=-0.0 size=N/A time=00:07:01.25 bitrate=N/A speed=18.6x    frame=10345 fps=446 q=-0.0 size=N/A time=00:07:11.47 bitrate=N/A speed=18.6x    frame=10554 fps=445 q=-0.0 size=N/A time=00:07:20.18 bitrate=N/A speed=18.6x    frame=10792 fps=445 q=-0.0 size=N/A time=00:07:30.11 bitrate=N/A speed=18.6x    frame=10979 fps=443 q=-0.0 size=N/A time=00:07:37.91 bitrate=N/A speed=18.5x    frame=11215 fps=444 q=-0.0 size=N/A time=00:07:47.75 bitrate=N/A speed=18.5x    frame=11455 fps=444 q=-0.0 size=N/A time=00:07:57.76 bitrate=N/A speed=18.5x    frame=11672 fps=443 q=-0.0 size=N/A time=00:08:06.81 bitrate=N/A speed=18.5x    frame=11911 fps=444 q=-0.0 size=N/A time=00:08:16.78 bitrate=N/A speed=18.5x    frame=12134 fps=444 q=-0.0 size=N/A time=00:08:26.08 bitrate=N/A speed=18.5x    frame=12366 fps=444 q=-0.0 size=N/A time=00:08:35.76 bitrate=N/A speed=18.5x    frame=12581 fps=443 q=-0.0 size=N/A time=00:08:44.73 bitrate=N/A speed=18.5x    frame=12822 fps=444 q=-0.0 size=N/A time=00:08:54.78 bitrate=N/A speed=18.5x    frame=13053 fps=444 q=-0.0 size=N/A time=00:09:04.41 bitrate=N/A speed=18.5x    frame=13273 fps=444 q=-0.0 size=N/A time=00:09:13.59 bitrate=N/A speed=18.5x    frame=13485 fps=443 q=-0.0 size=N/A time=00:09:22.43 bitrate=N/A speed=18.5x    frame=13716 fps=443 q=-0.0 size=N/A time=00:09:32.07 bitrate=N/A speed=18.5x    frame=13973 fps=444 q=-0.0 size=N/A time=00:09:42.79 bitrate=N/A speed=18.5x    frame=14231 fps=445 q=-0.0 size=N/A time=00:09:53.55 bitrate=N/A speed=18.5x    frame=14480 fps=445 q=-0.0 size=N/A time=00:10:03.93 bitrate=N/A speed=18.6x    frame=14727 fps=446 q=-0.0 size=N/A time=00:10:14.23 bitrate=N/A speed=18.6x    frame=14974 fps=446 q=-0.0 size=N/A time=00:10:24.54 bitrate=N/A speed=18.6x    frame=15235 fps=447 q=-0.0 size=N/A time=00:10:35.42 bitrate=N/A speed=18.7x    frame=15470 fps=447 q=-0.0 size=N/A time=00:10:45.22 bitrate=N/A speed=18.7x    frame=15700 fps=447 q=-0.0 size=N/A time=00:10:54.82 bitrate=N/A speed=18.7x    frame=15937 fps=448 q=-0.0 size=N/A time=00:11:04.70 bitrate=N/A speed=18.7x    frame=16191 fps=448 q=-0.0 size=N/A time=00:11:15.29 bitrate=N/A speed=18.7x    frame=16425 fps=448 q=-0.0 size=N/A time=00:11:25.05 bitrate=N/A speed=18.7x    frame=16671 fps=449 q=-0.0 size=N/A time=00:11:35.31 bitrate=N/A speed=18.7x    frame=16919 fps=449 q=-0.0 size=N/A time=00:11:45.66 bitrate=N/A speed=18.7x    frame=17129 fps=449 q=-0.0 size=N/A time=00:11:54.42 bitrate=N/A speed=18.7x    frame=17347 fps=448 q=-0.0 size=N/A time=00:12:03.51 bitrate=N/A speed=18.7x    frame=17572 fps=448 q=-0.0 size=N/A time=00:12:12.89 bitrate=N/A speed=18.7x    frame=17791 fps=448 q=-0.0 size=N/A time=00:12:22.03 bitrate=N/A speed=18.7x    frame=17999 fps=447 q=-0.0 size=N/A time=00:12:30.70 bitrate=N/A speed=18.6x    frame=18241 fps=447 q=-0.0 size=N/A time=00:12:40.80 bitrate=N/A speed=18.7x    frame=18485 fps=448 q=-0.0 size=N/A time=00:12:50.97 bitrate=N/A speed=18.7x    frame=18699 fps=447 q=-0.0 size=N/A time=00:12:59.90 bitrate=N/A speed=18.7x    frame=18935 fps=447 q=-0.0 size=N/A time=00:13:09.74 bitrate=N/A speed=18.7x    frame=19154 fps=447 q=-0.0 size=N/A time=00:13:18.88 bitrate=N/A speed=18.7x    frame=19375 fps=447 q=-0.0 size=N/A time=00:13:28.09 bitrate=N/A speed=18.6x    frame=19608 fps=447 q=-0.0 size=N/A time=00:13:37.81 bitrate=N/A speed=18.6x    frame=19878 fps=448 q=-0.0 size=N/A time=00:13:49.07 bitrate=N/A speed=18.7x    frame=20113 fps=448 q=-0.0 size=N/A time=00:13:58.87 bitrate=N/A speed=18.7x    frame=20382 fps=449 q=-0.0 size=N/A time=00:14:10.09 bitrate=N/A speed=18.7x    frame=20627 fps=449 q=-0.0 size=N/A time=00:14:20.31 bitrate=N/A speed=18.7x    frame=20845 fps=449 q=-0.0 size=N/A time=00:14:29.41 bitrate=N/A speed=18.7x    frame=21070 fps=449 q=-0.0 size=N/A time=00:14:38.79 bitrate=N/A speed=18.7x    frame=21286 fps=448 q=-0.0 size=N/A time=00:14:47.84 bitrate=N/A speed=18.7x    frame=21526 fps=448 q=-0.0 size=N/A time=00:14:57.81 bitrate=N/A speed=18.7x    frame=21735 fps=448 q=-0.0 size=N/A time=00:15:06.53 bitrate=N/A speed=18.7x    frame=21954 fps=448 q=-0.0 size=N/A time=00:15:15.66 bitrate=N/A speed=18.7x    frame=22183 fps=448 q=-0.0 size=N/A time=00:15:25.21 bitrate=N/A speed=18.7x    frame=22423 fps=448 q=-0.0 size=N/A time=00:15:35.22 bitrate=N/A speed=18.7x    frame=22645 fps=448 q=-0.0 size=N/A time=00:15:44.48 bitrate=N/A speed=18.7x    frame=22855 fps=447 q=-0.0 size=N/A time=00:15:53.24 bitrate=N/A speed=18.7x    frame=23091 fps=447 q=-0.0 size=N/A time=00:16:03.08 bitrate=N/A speed=18.7x    frame=23321 fps=447 q=-0.0 size=N/A time=00:16:12.68 bitrate=N/A speed=18.7x    frame=23532 fps=447 q=-0.0 size=N/A time=00:16:21.48 bitrate=N/A speed=18.6x    frame=23777 fps=447 q=-0.0 size=N/A time=00:16:31.69 bitrate=N/A speed=18.7x    frame=24035 fps=448 q=-0.0 size=N/A time=00:16:42.45 bitrate=N/A speed=18.7x    frame=24233 fps=447 q=-0.0 size=N/A time=00:16:50.71 bitrate=N/A speed=18.7x    frame=24466 fps=447 q=-0.0 size=N/A time=00:17:00.43 bitrate=N/A speed=18.7x    frame=24705 fps=447 q=-0.0 size=N/A time=00:17:10.40 bitrate=N/A speed=18.7x    frame=24923 fps=447 q=-0.0 size=N/A time=00:17:19.49 bitrate=N/A speed=18.7x    frame=25134 fps=447 q=-0.0 size=N/A time=00:17:28.29 bitrate=N/A speed=18.6x    frame=25363 fps=447 q=-0.0 size=N/A time=00:17:37.84 bitrate=N/A speed=18.6x    frame=25618 fps=447 q=-0.0 size=N/A time=00:17:48.48 bitrate=N/A speed=18.7x    frame=25882 fps=448 q=-0.0 size=N/A time=00:17:59.49 bitrate=N/A speed=18.7x    frame=26102 fps=448 q=-0.0 size=N/A time=00:18:08.67 bitrate=N/A speed=18.7x    frame=26280 fps=447 q=-0.0 size=N/A time=00:18:16.09 bitrate=N/A speed=18.6x    frame=26485 fps=446 q=-0.0 size=N/A time=00:18:24.64 bitrate=N/A speed=18.6x    frame=26720 fps=446 q=-0.0 size=N/A time=00:18:34.44 bitrate=N/A speed=18.6x    frame=26959 fps=446 q=-0.0 size=N/A time=00:18:44.41 bitrate=N/A speed=18.6x    frame=27213 fps=447 q=-0.0 size=N/A time=00:18:55.00 bitrate=N/A speed=18.6x    frame=27469 fps=447 q=-0.0 size=N/A time=00:19:05.68 bitrate=N/A speed=18.7x    frame=27729 fps=448 q=-0.0 size=N/A time=00:19:16.53 bitrate=N/A speed=18.7x    frame=27969 fps=448 q=-0.0 size=N/A time=00:19:26.54 bitrate=N/A speed=18.7x    frame=28185 fps=448 q=-0.0 size=N/A time=00:19:35.54 bitrate=N/A speed=18.7x    frame=28398 fps=447 q=-0.0 size=N/A time=00:19:44.43 bitrate=N/A speed=18.7x    frame=28638 fps=448 q=-0.0 size=N/A time=00:19:54.44 bitrate=N/A speed=18.7x    frame=28892 fps=448 q=-0.0 size=N/A time=00:20:05.03 bitrate=N/A speed=18.7x    frame=29111 fps=448 q=-0.0 size=N/A time=00:20:14.17 bitrate=N/A speed=18.7x    frame=29332 fps=448 q=-0.0 size=N/A time=00:20:23.38 bitrate=N/A speed=18.7x    frame=29577 fps=448 q=-0.0 size=N/A time=00:20:33.60 bitrate=N/A speed=18.7x    frame=29826 fps=448 q=-0.0 size=N/A time=00:20:43.99 bitrate=N/A speed=18.7x    frame=30067 fps=448 q=-0.0 size=N/A time=00:20:54.04 bitrate=N/A speed=18.7x    frame=30312 fps=448 q=-0.0 size=N/A time=00:21:04.26 bitrate=N/A speed=18.7x    frame=30568 fps=449 q=-0.0 size=N/A time=00:21:14.94 bitrate=N/A speed=18.7x    frame=30822 fps=449 q=-0.0 size=N/A time=00:21:25.53 bitrate=N/A speed=18.7x    frame=31059 fps=449 q=-0.0 size=N/A time=00:21:35.41 bitrate=N/A speed=18.7x    frame=31291 fps=449 q=-0.0 size=N/A time=00:21:45.09 bitrate=N/A speed=18.7x    frame=31509 fps=449 q=-0.0 size=N/A time=00:21:54.18 bitrate=N/A speed=18.7x    frame=31693 fps=448 q=-0.0 size=N/A time=00:22:01.86 bitrate=N/A speed=18.7x    frame=31905 fps=448 q=-0.0 size=N/A time=00:22:10.70 bitrate=N/A speed=18.7x    frame=32080 fps=447 q=-0.0 size=N/A time=00:22:18.00 bitrate=N/A speed=18.6x    frame=32249 fps=446 q=-0.0 size=N/A time=00:22:25.05 bitrate=N/A speed=18.6x    frame=32411 fps=445 q=-0.0 size=N/A time=00:22:31.80 bitrate=N/A speed=18.6x    frame=32570 fps=444 q=-0.0 size=N/A time=00:22:38.44 bitrate=N/A speed=18.5x    frame=32715 fps=443 q=-0.0 size=N/A time=00:22:44.48 bitrate=N/A speed=18.5x    frame=32872 fps=442 q=-0.0 size=N/A time=00:22:51.03 bitrate=N/A speed=18.4x    frame=33028 fps=441 q=-0.0 size=N/A time=00:22:57.54 bitrate=N/A speed=18.4x    frame=33201 fps=440 q=-0.0 size=N/A time=00:23:04.75 bitrate=N/A speed=18.4x    frame=33387 fps=440 q=-0.0 size=N/A time=00:23:12.51 bitrate=N/A speed=18.3x    frame=33604 fps=440 q=-0.0 size=N/A time=00:23:21.56 bitrate=N/A speed=18.3x    frame=33826 fps=440 q=-0.0 size=N/A time=00:23:30.82 bitrate=N/A speed=18.3x    frame=34017 fps=439 q=-0.0 size=N/A time=00:23:38.79 bitrate=N/A speed=18.3x    [Parsed_ssim_10 @ 00000148bb0d56c0] SSIM Y:0.995005 (23.014920) U:0.996108 (24.098760) V:0.996043 (24.026653) All:0.995362 (23.336846)
[out#0/null @ 00000148b8426440] video:14654KiB audio:266704KiB subtitle:0KiB other streams:0KiB global headers:0KiB muxing overhead: unknown
frame=34105 fps=439 q=-0.0 Lsize=N/A time=00:23:42.42 bitrate=N/A speed=18.3x    
